<svg width="99" height="27" viewBox="0 0 99 27" fill="none" xmlns="http://www.w3.org/2000/svg">
<path d="M87.8498 21.5771H90.5015C90.8686 21.5771 91.1406 21.4955 91.3174 21.3324C91.5078 21.1828 91.6777 20.8836 91.8273 20.4349L92.4392 18.6807L92.6024 21.108L87.0747 9.70581H90.2159L91.9089 13.6221C91.9633 13.7309 92.0109 13.8465 92.0517 13.9689C92.2693 14.4992 92.4052 15.016 92.4596 15.5191C92.5276 16.0222 92.5684 16.6545 92.582 17.4161H93.6631C93.6767 16.3962 93.7039 15.6347 93.7447 15.1315C93.7991 14.6284 93.9283 14.0641 94.1322 13.4385L95.3357 9.70581H98.3545L94.0914 21.5363C93.8875 22.0803 93.6495 22.5222 93.3775 22.8622C93.1192 23.2021 92.786 23.4537 92.378 23.6169C91.9701 23.7937 91.4738 23.882 90.889 23.882H87.8498V21.5771Z" fill="white"/>
<path d="M81.8179 11.9087H79.8394V9.70578H81.8179V8.29835C81.8179 7.76802 81.9131 7.30567 82.1035 6.91132C82.3074 6.50337 82.5998 6.19061 82.9806 5.97304C83.3613 5.74187 83.8237 5.62628 84.3676 5.62628H87.5088V7.9312H85.6118C85.2991 7.9312 85.0679 8.00599 84.9183 8.15557C84.7823 8.29155 84.7144 8.51592 84.7144 8.82868V9.70578H87.0805V11.9087H84.7144V19.9045H81.8179V11.9087Z" fill="white"/>
<path d="M74.0984 20.2309C73.065 20.2309 72.1539 20.0133 71.3652 19.5782C70.5901 19.1294 69.9849 18.4971 69.5498 17.6812C69.1283 16.8517 68.9175 15.8862 68.9175 14.7848C68.9175 13.7377 69.1419 12.8062 69.5906 11.9903C70.0393 11.1744 70.6513 10.5421 71.4264 10.0934C72.2151 9.63101 73.099 9.39984 74.078 9.39984C75.1931 9.39984 76.1382 9.67181 76.9133 10.2157C77.6884 10.7461 78.2527 11.4736 78.6063 12.3983C78.9734 13.323 79.1094 14.3564 79.0142 15.4987H71.8139C71.8411 16.0834 71.9567 16.5662 72.1607 16.9469C72.3646 17.3141 72.6298 17.586 72.9562 17.7628C73.2825 17.9396 73.6633 18.028 74.0984 18.028C74.6968 18.028 75.1795 17.8716 75.5467 17.5588C75.9138 17.2461 76.2198 16.8109 76.4645 16.2534L79.055 17.2529C78.8238 17.7696 78.5111 18.2523 78.1167 18.7011C77.736 19.1362 77.2124 19.5034 76.5461 19.8025C75.8798 20.0881 75.0639 20.2309 74.0984 20.2309ZM76.1586 13.4589C76.1178 13.0374 76.009 12.6838 75.8322 12.3983C75.6554 12.0991 75.4175 11.8747 75.1183 11.7252C74.8327 11.562 74.486 11.4804 74.078 11.4804C73.4933 11.4804 73.0106 11.6504 72.6298 11.9903C72.2491 12.3303 72.0111 12.8198 71.9159 13.4589H76.1586Z" fill="white"/>
<path d="M60.5554 20.2309C59.7395 20.2309 59.012 20.0065 58.3729 19.5578C57.7337 19.0954 57.2374 18.4563 56.8839 17.6404C56.5303 16.8109 56.3535 15.8658 56.3535 14.8051C56.3535 13.7445 56.5303 12.8062 56.8839 11.9903C57.2374 11.1744 57.7337 10.5421 58.3729 10.0933C59.012 9.63098 59.7395 9.39981 60.5554 9.39981C61.4937 9.39981 62.2144 9.63098 62.7175 10.0933C63.2343 10.5421 63.6422 11.1132 63.9414 11.8067H65.1652C64.8253 11.2764 64.5601 10.7188 64.3697 10.1341C64.1793 9.5358 64.0842 8.6995 64.0842 7.62523V5.62628H66.9806V19.9045H64.3493C64.3493 19.5781 64.4309 19.245 64.5941 18.905C64.7573 18.5651 64.968 18.2047 65.2264 17.824H64.0026C63.649 18.5447 63.2207 19.1294 62.7175 19.5781C62.228 20.0133 61.5073 20.2309 60.5554 20.2309ZM61.7792 18.0279C62.2688 18.0279 62.6903 17.9124 63.0439 17.6812C63.411 17.4364 63.6966 17.0761 63.9006 16.6001C64.1046 16.1106 64.2065 15.5123 64.2065 14.8051C64.2065 14.098 64.1046 13.5065 63.9006 13.0306C63.7102 12.541 63.4314 12.1807 63.0643 11.9495C62.6971 11.7047 62.2688 11.5823 61.7792 11.5823C61.3033 11.5823 60.8886 11.6911 60.535 11.9087C60.1814 12.1127 59.9027 12.4594 59.6987 12.949C59.4947 13.4249 59.3927 14.0436 59.3927 14.8051C59.3927 15.5666 59.4947 16.1922 59.6987 16.6817C59.9027 17.1576 60.1814 17.5044 60.535 17.722C60.8886 17.926 61.3033 18.0279 61.7792 18.0279Z" fill="white"/>
<path d="M51.5327 9.7058H54.4291V19.9045H51.5327V9.7058ZM51.4307 5.58551H54.5107V8.31877H51.4307V5.58551Z" fill="white"/>
<path d="M46.0403 5.62628H48.9367V19.9045H46.0403V5.62628Z" fill="white"/>
<path d="M37.9715 20.2309C36.7069 20.2309 35.6122 20.0337 34.6875 19.6393C33.7764 19.245 33.0557 18.7215 32.5254 18.0687C31.9951 17.4024 31.6347 16.6545 31.4443 15.825L34.3612 14.8459C34.47 15.3491 34.6671 15.825 34.9527 16.2738C35.2383 16.7089 35.6326 17.0693 36.1358 17.3548C36.6525 17.6268 37.2644 17.7628 37.9715 17.7628C38.9234 17.7628 39.6237 17.5928 40.0725 17.2528C40.5348 16.9129 40.766 16.4709 40.766 15.927C40.766 15.4647 40.5824 15.0907 40.2152 14.8051C39.8617 14.506 39.2702 14.2952 38.4407 14.1728L36.6661 13.9281C35.7142 13.7921 34.9051 13.5541 34.2388 13.2141C33.5725 12.8742 33.0557 12.4118 32.6886 11.8271C32.335 11.2288 32.1582 10.5013 32.1582 9.64459C32.1582 8.86948 32.3758 8.14877 32.811 7.48246C33.2461 6.81614 33.8852 6.2858 34.7283 5.89145C35.585 5.4971 36.6117 5.29993 37.8083 5.29993C38.9642 5.29993 39.9569 5.4767 40.7864 5.83026C41.6159 6.17022 42.2754 6.62576 42.7649 7.19689C43.2681 7.76802 43.6284 8.40714 43.846 9.11425L40.9903 10.1137C40.8408 9.65139 40.63 9.24344 40.358 8.88988C40.0861 8.53632 39.7393 8.26436 39.3178 8.07398C38.8962 7.87001 38.3931 7.76802 37.8083 7.76802C37.2236 7.76802 36.7477 7.84961 36.3805 8.01279C36.027 8.17597 35.7686 8.39354 35.6054 8.66551C35.4558 8.92388 35.381 9.20944 35.381 9.5222C35.381 9.93015 35.5374 10.2701 35.8502 10.5421C36.1765 10.8004 36.6321 10.9704 37.2168 11.052L38.9914 11.2968C40.5416 11.5144 41.7587 11.9903 42.6425 12.7246C43.54 13.4589 43.9888 14.4584 43.9888 15.723C43.9888 16.5661 43.7712 17.3276 43.3361 18.0075C42.9009 18.6875 42.2346 19.2314 41.3371 19.6393C40.4396 20.0337 39.3178 20.2309 37.9715 20.2309Z" fill="white"/>
<path fill-rule="evenodd" clip-rule="evenodd" d="M11.836 0C12.6628 3.3921e-05 13.4889 0.31564 14.1192 0.946289L19.6563 6.48242L19.6485 6.49023H7.23545C5.39615 6.49042 3.90591 7.98095 3.90635 9.81934C3.90635 11.6588 5.39696 13.1498 7.23545 13.1494H12.9894L16.5353 9.60352C17.6149 8.52389 19.0296 7.98352 20.4444 7.9834C21.8598 7.9834 23.2758 8.52371 24.3556 9.60352C26.5149 11.7628 26.515 15.2646 24.3556 17.4238L16.422 25.3564C15.1606 26.6172 13.1162 26.6173 11.8546 25.3564L6.31846 19.8203L6.32627 19.8125H18.7384C20.5779 19.8125 22.0684 18.3211 22.0675 16.4824C22.0674 14.6429 20.5773 13.1527 18.7384 13.1533H12.9854L9.43955 16.6982C7.28024 18.8579 3.77854 18.8579 1.61924 16.6982C-0.53972 14.539 -0.539772 11.0381 1.61924 8.87891L9.55186 0.946289C10.1826 0.315593 11.0095 0 11.836 0Z" fill="url(#paint0_linear_2_1792)"/>
<defs>
<linearGradient id="paint0_linear_2_1792" x1="0.808609" y1="31.4103" x2="26.5854" y2="31.4103" gradientUnits="userSpaceOnUse">
<stop stop-color="#F8388B"/>
<stop offset="1" stop-color="#FFA84B"/>
</linearGradient>
</defs>
</svg>
